PathFileType	4	(X/Y/Z)	s02c0403.trc
DataRate	CameraRate	NumFrames	NumMarkers	Units	OrigDataRate	OrigDataStartFrame	OrigNumFrames
200	200	6	51	mm	200	500	2000
Frame#	Time	racr			lacr			c7			jug			rlel			rdr			llel			ldr			s2			lic			ric			lasi			rasi			rpsi			lpsi			rgt			lgt			rth1			rth2			rth3			rth4			rlfc			rmfc			rsh1			rsh2			rsh3			rsh4			rlmal			rmmal			rcal			rtoe			rmt5			rmt1			lth1			lth2			lth4			lth3			llfc			lmfc			lsh1			lsh2			lsh3			lsh4			llmal			lmmal			lcal			ltoe			lmt5			SBIKE			LBIKE			RBIKE			
		X1	Y1	Z1	X2	Y2	Z2	X3	Y3	Z3	X4	Y4	Z4	X5	Y5	Z5	X6	Y6	Z6	X7	Y7	Z7	X8	Y8	Z8	X9	Y9	Z9	X10	Y10	Z10	X11	Y11	Z11	X12	Y12	Z12	X13	Y13	Z13	X14	Y14	Z14	X15	Y15	Z15	X16	Y16	Z16	X17	Y17	Z17	X18	Y18	Z18	X19	Y19	Z19	X20	Y20	Z20	X21	Y21	Z21	X22	Y22	Z22	X23	Y23	Z23	X24	Y24	Z24	X25	Y25	Z25	X26	Y26	Z26	X27	Y27	Z27	X28	Y28	Z28	X29	Y29	Z29	X30	Y30	Z30	X31	Y31	Z31	X32	Y32	Z32	X33	Y33	Z33	X34	Y34	Z34	X35	Y35	Z35	X36	Y36	Z36	X37	Y37	Z37	X38	Y38	Z38	X39	Y39	Z39	X40	Y40	Z40	X41	Y41	Z41	X42	Y42	Z42	X43	Y43	Z43	X44	Y44	Z44	X45	Y45	Z45	X46	Y46	Z46	X47	Y47	Z47	X48	Y48	Z48	X49	Y49	Z49	X50	Y50	Z50	X51	Y51	Z51	
500	2.5000	518.214434	1301.262743	-161.674978	526.847403	1301.399023	-489.442164	513.607047	1327.093948	-331.551640	464.628644	1198.507918	-325.042108	557.138410	1042.675608	-68.897003	707.029587	889.954806	-133.462501	529.475480	1030.514432	-600.272909	699.149264	894.181886	-516.071351	1.893729	1122.638539	-319.367384	139.993228	1090.656160	-468.209571	125.472642	1106.835668	-183.117532	184.705384	1055.558405	-441.990170	178.352517	1086.295207	-216.203152	15.712150	1140.547185	-290.482702	0.000000	0.000000	-0.000000	98.198446	1036.335009	-137.092361	78.613133	1002.002189	-498.493410	186.400182	1022.601617	-137.589123	273.135915	1013.428674	-149.446053	346.536487	975.043783	-127.292384	281.246678	1035.816988	-179.434267	469.376040	890.087294	-163.565532	458.281279	869.457011	-273.946392	448.306914	780.241973	-144.766515	426.133549	694.633567	-162.361419	373.011801	628.214542	-153.072772	440.011837	690.130808	-198.984352	309.631236	524.891047	-155.383507	316.155635	544.313214	-236.752877	234.378287	474.240857	-196.588906	519.586143	470.715224	-195.515454	412.130335	452.689000	-136.065351	437.719089	466.980612	-245.173731	174.620973	898.179006	-517.981478	237.675630	837.998554	-516.403456	267.005055	856.024221	-504.524087	261.025680	752.013168	-513.236431	309.042455	664.133753	-490.550167	312.698716	635.940781	-387.055427	260.545531	570.354005	-509.350131	234.214505	489.446009	-491.842328	168.500479	427.846129	-493.171234	253.083548	481.786599	-456.273924	98.209106	346.704486	-473.458193	117.917184	339.172389	-398.086704	21.629526	321.413656	-431.622948	275.440277	188.896127	-446.366538	167.387395	211.915552	-503.489414	-129.611870	869.047135	-314.447612	32.726368	82.141798	-515.180592	32.822517	82.369400	-115.118671	
501	2.5050	521.905420	1298.565055	-161.681827	530.388900	1298.736721	-488.975404	517.181678	1324.199071	-331.460020	467.438341	1195.752458	-324.949021	556.787481	1040.487929	-67.166067	706.748579	889.702209	-133.332915	529.223370	1028.397676	-601.572101	698.864845	893.922524	-516.103976	4.692435	1123.683466	-324.179286	141.430477	1090.639205	-468.074233	126.581754	1106.986595	-183.289976	185.569027	1055.176034	-441.817595	179.266452	1085.994103	-216.361291	17.219746	1142.320549	-290.328349	0.000000	0.000000	-0.000000	98.352961	1037.018246	-136.734747	79.060511	1002.866715	-498.445949	186.383092	1023.611627	-137.656036	272.946672	1013.914793	-149.478818	346.208156	975.485024	-127.238182	281.222150	1036.387840	-179.650860	468.840434	889.881898	-163.151203	457.753425	869.395538	-273.561528	447.214955	780.202129	-144.408503	424.737468	694.650484	-162.122512	371.246931	628.419139	-152.893686	438.579724	690.100373	-198.744043	307.316444	525.398966	-155.422642	313.741467	545.020258	-236.691926	232.507943	474.358162	-196.377828	517.610867	473.052204	-195.370121	410.170566	454.157107	-135.891066	435.927989	468.554589	-245.117712	174.287698	898.331893	-518.049056	236.903465	837.665941	-516.355381	266.313456	855.446393	-504.495381	259.479016	751.502181	-513.214196	306.693635	663.214651	-490.361232	310.152784	634.885576	-386.851043	258.281276	569.126106	-509.208309	232.490631	488.089237	-491.948986	167.183049	426.142511	-493.353830	251.426959	480.500738	-456.381927	97.310950	344.218360	-473.541309	117.001851	337.081495	-398.188485	20.879980	317.908010	-431.737997	276.478434	188.837607	-446.411398	168.119856	210.353717	-503.568182	-129.593739	869.060084	-314.446440	32.726786	82.131573	-515.206820	32.305308	82.805547	-115.229493	
502	2.5100	525.556931	1295.674418	-161.727861	534.061329	1295.985212	-488.371760	520.772814	1321.172719	-331.264976	470.361512	1193.156842	-324.923506	556.407707	1038.275471	-65.687505	706.493053	889.439710	-133.242203	528.893701	1026.152658	-602.896856	698.613497	893.620076	-516.173064	6.473214	1125.150409	-324.339759	142.960371	1090.694146	-467.954322	127.743024	1107.078929	-183.284077	186.552013	1054.770603	-441.658523	180.269235	1085.647083	-216.358108	18.888912	1144.010250	-290.208972	0.000000	0.000000	-0.000000	98.445223	1038.044443	-136.101924	79.811114	1003.685766	-498.695941	186.440286	1024.696003	-137.712311	272.886377	1014.652250	-149.593988	345.971416	975.881727	-127.122500	281.299111	1036.916290	-179.857906	468.402216	889.572832	-162.696237	457.079661	869.358677	-272.677223	446.151207	780.020466	-144.062172	424.102784	695.194518	-160.804566	369.404587	628.761525	-152.881460	437.129807	690.072710	-198.522908	304.993315	525.839516	-155.504506	311.513234	545.514578	-236.736883	230.501525	474.297901	-196.443238	515.602351	475.255361	-195.291965	408.290029	455.528698	-135.708063	433.926118	470.071960	-244.626782	174.067483	898.477672	-518.067984	236.090992	837.192539	-516.275373	265.684875	854.761300	-504.380759	257.914613	750.920900	-513.167546	304.311787	662.177725	-490.182978	307.514640	633.709658	-386.786058	255.998250	567.889911	-509.244157	230.730141	486.572684	-492.002407	165.779210	424.166857	-493.477138	249.658467	479.115023	-456.497454	96.445188	341.673525	-473.653275	116.090857	334.767229	-398.277144	20.148885	314.304262	-431.899979	277.579709	188.810395	-446.395378	168.937773	208.721527	-503.622385	-129.566550	869.064620	-314.444026	32.717396	82.143376	-515.196520	32.816108	82.298077	-115.079140	
503	2.5150	529.155875	1292.721079	-161.753867	537.734193	1293.266318	-487.810016	524.320001	1318.202843	-331.134659	473.386187	1190.379947	-324.690633	556.202595	1036.012674	-64.140152	706.197175	889.188465	-133.237654	528.349440	1023.793139	-604.176951	698.433353	893.304490	-516.414970	8.378198	1126.534800	-324.608204	144.520411	1090.789554	-467.901078	129.002727	1107.292381	-183.408874	187.619899	1054.467968	-441.393932	181.350586	1085.304199	-216.356780	20.691307	1145.598629	-290.194102	0.000000	0.000000	-0.000000	98.806980	1038.654225	-136.260304	80.605911	1004.600721	-498.758214	186.582642	1025.680013	-137.801317	272.918869	1015.237683	-149.521772	345.808488	976.265174	-127.000737	281.491833	1037.403666	-179.968069	468.086239	889.344829	-162.151156	456.764321	869.134642	-272.146784	444.952794	779.827139	-143.828044	422.602364	695.090829	-160.699384	367.648315	628.946205	-152.749285	435.715810	690.032034	-198.340568	302.660955	526.380337	-155.535658	309.209199	546.165934	-236.775459	228.519895	474.310966	-196.524480	513.526222	477.507721	-195.127291	406.379198	456.796458	-135.615292	431.915682	471.684025	-244.518557	173.963312	898.560429	-518.061389	235.383159	836.715311	-515.940418	265.106824	853.947077	-503.996265	256.360743	750.147037	-513.033644	301.812207	660.929568	-489.980947	304.829835	632.285261	-386.743899	253.664475	566.515209	-509.282092	228.951733	485.065382	-492.155671	164.406806	422.161027	-493.644478	247.876560	477.640268	-456.589428	95.601564	338.986952	-473.766983	115.291501	331.744945	-397.861948	19.460322	310.506809	-432.033511	278.734586	188.746830	-446.281735	169.761297	207.089410	-503.690096	-129.544169	869.085441	-314.457940	32.733096	82.138009	-515.200640	32.832739	82.359373	-115.135684	
504	2.5200	532.860602	1289.669239	-161.763906	541.497447	1290.330924	-487.197310	527.980471	1315.214440	-330.911805	476.269548	1187.793222	-324.652824	555.973888	1033.653030	-62.702386	705.894266	888.906278	-133.262623	527.786731	1021.436607	-605.331232	698.307556	893.012894	-516.767779	10.287842	1127.849018	-324.755559	146.020623	1090.936308	-467.972262	130.307284	1107.381108	-183.529888	188.675847	1054.147413	-441.245250	182.517313	1085.031716	-216.314876	22.568399	1147.111404	-290.139883	0.000000	0.000000	-0.000000	99.207896	1039.329327	-136.149908	81.590792	1005.528151	-498.854637	186.832088	1026.479241	-137.930890	273.072679	1015.812551	-149.568945	345.766793	976.593185	-126.866048	281.805667	1037.863903	-180.083004	467.821593	889.050372	-161.470691	456.718793	868.762163	-271.877198	444.082810	779.627357	-143.399012	421.257805	694.907337	-160.560797	366.024089	629.118419	-152.589149	434.426082	689.820075	-197.996973	300.437387	526.941324	-155.645431	307.013749	546.823968	-236.796025	226.513962	474.509332	-196.658035	511.507852	479.638110	-194.909694	404.444173	458.151771	-135.511786	429.923897	473.224192	-244.306227	173.959877	898.553760	-518.063411	234.730471	836.079110	-515.795746	264.589844	852.973238	-503.783727	254.770369	749.336968	-512.953120	299.347877	659.627488	-489.767697	302.040779	630.923577	-386.638672	251.321432	564.901815	-509.176954	227.156144	483.280801	-492.063449	163.098810	420.056405	-493.816168	246.117326	476.046422	-456.671706	94.754798	336.239232	-473.894293	114.494321	329.318006	-397.910008	18.791153	306.743242	-432.198894	279.819444	188.677108	-446.336122	170.654891	205.428251	-503.776850	-129.510144	869.095375	-314.467165	32.731068	82.130865	-515.179627	32.306132	82.804462	-115.225997	
505	2.5250	536.546633	1286.563540	-161.747368	545.304958	1287.317899	-486.568965	531.565436	1312.179443	-330.625078	479.248309	1185.048064	-324.538966	555.810048	1031.171540	-61.385869	705.605818	888.637207	-133.288229	527.090819	1019.033046	-606.296283	698.177007	892.707403	-517.147778	11.224168	1129.186298	-313.526341	147.844981	1091.004965	-467.817213	131.698524	1107.586170	-183.606061	189.816892	1053.822949	-440.933407	183.836621	1084.827289	-216.146539	24.563338	1148.504874	-290.150155	0.000000	0.000000	-0.000000	99.751702	1040.091998	-135.959699	82.659921	1006.402339	-498.960838	187.146511	1027.057193	-138.026211	273.340825	1016.511427	-149.633000	345.818457	976.918770	-126.595833	282.203593	1038.319710	-180.142835	467.650970	888.688185	-160.750818	456.562206	868.604927	-271.187682	443.385375	779.423035	-142.905916	419.933166	694.813120	-160.409656	364.463664	629.404961	-152.502224	433.231843	689.775724	-197.704668	298.231548	527.691882	-155.703811	304.896988	547.490228	-236.825683	224.549591	474.805006	-196.789313	509.471126	481.692991	-194.696766	402.522959	459.506327	-135.303420	428.013166	474.838434	-244.137288	174.042697	898.426599	-518.029232	234.061843	835.264175	-515.586993	264.129400	851.898025	-503.600201	253.185101	748.316467	-512.774132	296.782733	658.255845	-489.544829	299.183489	629.429101	-386.553221	249.124068	563.318308	-509.252558	225.480779	481.566362	-492.222185	161.867507	417.720850	-493.881052	244.353207	474.384363	-456.576368	93.989727	333.434533	-473.981184	113.688062	326.819001	-397.944946	17.696802	302.663245	-432.066554	281.025184	188.637292	-446.227323	171.562379	203.768651	-503.848415	-129.488400	869.113388	-314.488590	32.730811	82.129100	-515.194809	32.835916	82.356800	-115.133958	
